  0
SECTION
  2
HEADER
  9
$ACADVER
  1
AC1027
  9
$ACADMAINTVER
 70
105
  9
$DWGCODEPAGE
  3
ANSI_1252
  9
$LASTSAVEDBY
  1
ezdxf
  9
$REQUIREDVERSIONS
160
0
  9
$INSBASE
 10
0.0
 20
0.0
 30
0.0
  9
$EXTMIN
 10
1e+20
 20
1e+20
 30
1e+20
  9
$EXTMAX
 10
-1e+20
 20
-1e+20
 30
-1e+20
  9
$LIMMIN
 10
0.0
 20
0.0
  9
$LIMMAX
 10
420.0
 20
297.0
  9
$ORTHOMODE
 70
0
  9
$REGENMODE
 70
1
  9
$FILLMODE
 70
1
  9
$QTEXTMODE
 70
0
  9
$MIRRTEXT
 70
1
  9
$LTSCALE
 40
1.0
  9
$ATTMODE
 70
1
  9
$TEXTSIZE
 40
2.5
  9
$TRACEWID
 40
1.0
  9
$TEXTSTYLE
  7
Standard
  9
$CLAYER
  8
0
  9
$CELTYPE
  6
ByLayer
  9
$CECOLOR
 62
256
  9
$CELTSCALE
 40
1.0
  9
$DISPSILH
 70
0
  9
$DIMSCALE
 40
1.0
  9
$DIMASZ
 40
2.5
  9
$DIMEXO
 40
0.625
  9
$DIMDLI
 40
3.75
  9
$DIMRND
 40
0.0
  9
$DIMDLE
 40
0.0
  9
$DIMEXE
 40
1.25
  9
$DIMTP
 40
0.0
  9
$DIMTM
 40
0.0
  9
$DIMTXT
 40
2.5
  9
$DIMCEN
 40
2.5
  9
$DIMTSZ
 40
0.0
  9
$DIMTOL
 70
0
  9
$DIMLIM
 70
0
  9
$DIMTIH
 70
0
  9
$DIMTOH
 70
0
  9
$DIMSE1
 70
0
  9
$DIMSE2
 70
0
  9
$DIMTAD
 70
1
  9
$DIMZIN
 70
8
  9
$DIMBLK
  1

  9
$DIMASO
 70
1
  9
$DIMSHO
 70
1
  9
$DIMPOST
  1

  9
$DIMAPOST
  1

  9
$DIMALT
 70
0
  9
$DIMALTD
 70
3
  9
$DIMALTF
 40
0.03937007874
  9
$DIMLFAC
 40
1.0
  9
$DIMTOFL
 70
1
  9
$DIMTVP
 40
0.0
  9
$DIMTIX
 70
0
  9
$DIMSOXD
 70
0
  9
$DIMSAH
 70
0
  9
$DIMBLK1
  1

  9
$DIMBLK2
  1

  9
$DIMSTYLE
  2
ISO-25
  9
$DIMCLRD
 70
0
  9
$DIMCLRE
 70
0
  9
$DIMCLRT
 70
0
  9
$DIMTFAC
 40
1.0
  9
$DIMGAP
 40
0.625
  9
$DIMJUST
 70
0
  9
$DIMSD1
 70
0
  9
$DIMSD2
 70
0
  9
$DIMTOLJ
 70
0
  9
$DIMTZIN
 70
8
  9
$DIMALTZ
 70
0
  9
$DIMALTTZ
 70
0
  9
$DIMUPT
 70
0
  9
$DIMDEC
 70
2
  9
$DIMTDEC
 70
2
  9
$DIMALTU
 70
2
  9
$DIMALTTD
 70
3
  9
$DIMTXSTY
  7
Standard
  9
$DIMAUNIT
 70
0
  9
$DIMADEC
 70
0
  9
$DIMALTRND
 40
0.0
  9
$DIMAZIN
 70
0
  9
$DIMDSEP
 70
44
  9
$DIMATFIT
 70
3
  9
$DIMFRAC
 70
0
  9
$DIMLDRBLK
  1

  9
$DIMLUNIT
 70
2
  9
$DIMLWD
 70
-2
  9
$DIMLWE
 70
-2
  9
$DIMTMOVE
 70
0
  9
$DIMFXL
 40
1.0
  9
$DIMFXLON
 70
0
  9
$DIMJOGANG
 40
0.785398163397
  9
$DIMTFILL
 70
0
  9
$DIMTFILLCLR
 70
0
  9
$DIMARCSYM
 70
0
  9
$DIMLTYPE
  6

  9
$DIMLTEX1
  6

  9
$DIMLTEX2
  6

  9
$DIMTXTDIRECTION
 70
0
  9
$LUNITS
 70
2
  9
$LUPREC
 70
4
  9
$SKETCHINC
 40
1.0
  9
$FILLETRAD
 40
10.0
  9
$AUNITS
 70
0
  9
$AUPREC
 70
2
  9
$MENU
  1
.
  9
$ELEVATION
 40
0.0
  9
$PELEVATION
 40
0.0
  9
$THICKNESS
 40
0.0
  9
$LIMCHECK
 70
0
  9
$CHAMFERA
 40
0.0
  9
$CHAMFERB
 40
0.0
  9
$CHAMFERC
 40
0.0
  9
$CHAMFERD
 40
0.0
  9
$SKPOLY
 70
0
  9
$TDCREATE
 40
2460711.697638889
  9
$TDUCREATE
 40
2458532.153996898
  9
$TDUPDATE
 40
2460711.697638889
  9
$TDUUPDATE
 40
2458532.1544311
  9
$TDINDWG
 40
0.0
  9
$TDUSRTIMER
 40
0.0
  9
$USRTIMER
 70
1
  9
$ANGBASE
 50
0.0
  9
$ANGDIR
 70
0
  9
$PDMODE
 70
0
  9
$PDSIZE
 40
0.0
  9
$PLINEWID
 40
0.0
  9
$SPLFRAME
 70
0
  9
$SPLINETYPE
 70
6
  9
$SPLINESEGS
 70
8
  9
$HANDSEED
  5
F5
  9
$SURFTAB1
 70
6
  9
$SURFTAB2
 70
6
  9
$SURFTYPE
 70
6
  9
$SURFU
 70
6
  9
$SURFV
 70
6
  9
$UCSBASE
  2

  9
$UCSNAME
  2

  9
$UCSORG
 10
0.0
 20
0.0
 30
0.0
  9
$UCSXDIR
 10
1.0
 20
0.0
 30
0.0
  9
$UCSYDIR
 10
0.0
 20
1.0
 30
0.0
  9
$UCSORTHOREF
  2

  9
$UCSORTHOVIEW
 70
0
  9
$UCSORGTOP
 10
0.0
 20
0.0
 30
0.0
  9
$UCSORGBOTTOM
 10
0.0
 20
0.0
 30
0.0
  9
$UCSORGLEFT
 10
0.0
 20
0.0
 30
0.0
  9
$UCSORGRIGHT
 10
0.0
 20
0.0
 30
0.0
  9
$UCSORGFRONT
 10
0.0
 20
0.0
 30
0.0
  9
$UCSORGBACK
 10
0.0
 20
0.0
 30
0.0
  9
$PUCSBASE
  2

  9
$PUCSNAME
  2

  9
$PUCSORG
 10
0.0
 20
0.0
 30
0.0
  9
$PUCSXDIR
 10
1.0
 20
0.0
 30
0.0
  9
$PUCSYDIR
 10
0.0
 20
1.0
 30
0.0
  9
$PUCSORTHOREF
  2

  9
$PUCSORTHOVIEW
 70
0
  9
$PUCSORGTOP
 10
0.0
 20
0.0
 30
0.0
  9
$PUCSORGBOTTOM
 10
0.0
 20
0.0
 30
0.0
  9
$PUCSORGLEFT
 10
0.0
 20
0.0
 30
0.0
  9
$PUCSORGRIGHT
 10
0.0
 20
0.0
 30
0.0
  9
$PUCSORGFRONT
 10
0.0
 20
0.0
 30
0.0
  9
$PUCSORGBACK
 10
0.0
 20
0.0
 30
0.0
  9
$USERI1
 70
0
  9
$USERI2
 70
0
  9
$USERI3
 70
0
  9
$USERI4
 70
0
  9
$USERI5
 70
0
  9
$USERR1
 40
0.0
  9
$USERR2
 40
0.0
  9
$USERR3
 40
0.0
  9
$USERR4
 40
0.0
  9
$USERR5
 40
0.0
  9
$WORLDVIEW
 70
1
  9
$SHADEDGE
 70
3
  9
$SHADEDIF
 70
70
  9
$TILEMODE
 70
1
  9
$MAXACTVP
 70
64
  9
$PINSBASE
 10
0.0
 20
0.0
 30
0.0
  9
$PLIMCHECK
 70
0
  9
$PEXTMIN
 10
1e+20
 20
1e+20
 30
1e+20
  9
$PEXTMAX
 10
-1e+20
 20
-1e+20
 30
-1e+20
  9
$PLIMMIN
 10
0.0
 20
0.0
  9
$PLIMMAX
 10
420.0
 20
297.0
  9
$UNITMODE
 70
0
  9
$VISRETAIN
 70
1
  9
$PLINEGEN
 70
0
  9
$PSLTSCALE
 70
1
  9
$TREEDEPTH
 70
3020
  9
$CMLSTYLE
  2
Standard
  9
$CMLJUST
 70
0
  9
$CMLSCALE
 40
20.0
  9
$PROXYGRAPHICS
 70
1
  9
$MEASUREMENT
 70
1
  9
$CELWEIGHT
370
-1
  9
$ENDCAPS
280
0
  9
$JOINSTYLE
280
0
  9
$LWDISPLAY
290
0
  9
$INSUNITS
 70
6
  9
$HYPERLINKBASE
  1

  9
$STYLESHEET
  1

  9
$XEDIT
290
1
  9
$CEPSNTYPE
380
0
  9
$PSTYLEMODE
290
1
  9
$FINGERPRINTGUID
  2
{CD002B75-FA08-49E3-A7CB-A926899F5496}
  9
$VERSIONGUID
  2
{A1C1FAE0-A7C3-422A-8998-EBF61F2446BC}
  9
$EXTNAMES
290
1
  9
$PSVPSCALE
 40
0.0
  9
$OLESTARTUP
290
0
  9
$SORTENTS
280
127
  9
$INDEXCTL
280
0
  9
$HIDETEXT
280
1
  9
$XCLIPFRAME
280
1
  9
$HALOGAP
280
0
  9
$OBSCOLOR
 70
257
  9
$OBSLTYPE
280
0
  9
$INTERSECTIONDISPLAY
280
0
  9
$INTERSECTIONCOLOR
 70
257
  9
$DIMASSOC
280
2
  9
$PROJECTNAME
  1

  9
$CAMERADISPLAY
290
0
  9
$LENSLENGTH
 40
50.0
  9
$CAMERAHEIGHT
 40
0.0
  9
$STEPSPERSEC
 40
24.0
  9
$STEPSIZE
 40
100.0
  9
$3DDWFPREC
 40
2.0
  9
$PSOLWIDTH
 40
0.005
  9
$PSOLHEIGHT
 40
0.08
  9
$LOFTANG1
 40
1.570796326795
  9
$LOFTANG2
 40
1.570796326795
  9
$LOFTMAG1
 40
0.0
  9
$LOFTMAG2
 40
0.0
  9
$LOFTPARAM
 70
7
  9
$LOFTNORMALS
280
1
  9
$LATITUDE
 40
37.795
  9
$LONGITUDE
 40
-122.394
  9
$NORTHDIRECTION
 40
0.0
  9
$TIMEZONE
 70
-8000
  9
$LIGHTGLYPHDISPLAY
280
1
  9
$TILEMODELIGHTSYNCH
280
1
  9
$CMATERIAL
347
20
  9
$SOLIDHIST
280
0
  9
$SHOWHIST
280
1
  9
$DWFFRAME
280
2
  9
$DGNFRAME
280
2
  9
$REALWORLDSCALE
290
1
  9
$INTERFERECOLOR
 62
256
  9
$CSHADOW
280
0
  9
$SHADOWPLANELOCATION
 40
0.0
  0
ENDSEC
  0
SECTION
  2
CLASSES
  0
CLASS
  1
ACDBDICTIONARYWDFLT
  2
AcDbDictionaryWithDefault
  3
ObjectDBX Classes
 90
0
 91
0
280
0
281
0
  0
CLASS
  1
SUN
  2
AcDbSun
  3
SCENEOE
 90
1153
 91
0
280
0
281
0
  0
CLASS
  1
VISUALSTYLE
  2
AcDbVisualStyle
  3
ObjectDBX Classes
 90
4095
 91
0
280
0
281
0
  0
CLASS
  1
MATERIAL
  2
AcDbMaterial
  3
ObjectDBX Classes
 90
1153
 91
0
280
0
281
0
  0
CLASS
  1
SCALE
  2
AcDbScale
  3
ObjectDBX Classes
 90
1153
 91
0
280
0
281
0
  0
CLASS
  1
TABLESTYLE
  2
AcDbTableStyle
  3
ObjectDBX Classes
 90
4095
 91
0
280
0
281
0
  0
CLASS
  1
MLEADERSTYLE
  2
AcDbMLeaderStyle
  3
ACDB_MLEADERSTYLE_CLASS
 90
4095
 91
0
280
0
281
0
  0
CLASS
  1
DICTIONARYVAR
  2
AcDbDictionaryVar
  3
ObjectDBX Classes
 90
0
 91
0
280
0
281
0
  0
CLASS
  1
CELLSTYLEMAP
  2
AcDbCellStyleMap
  3
ObjectDBX Classes
 90
1152
 91
0
280
0
281
0
  0
CLASS
  1
MENTALRAYRENDERSETTINGS
  2
AcDbMentalRayRenderSettings
  3
SCENEOE
 90
1024
 91
0
280
0
281
0
  0
CLASS
  1
ACDBDETAILVIEWSTYLE
  2
AcDbDetailViewStyle
  3
ObjectDBX Classes
 90
1025
 91
0
280
0
281
0
  0
CLASS
  1
ACDBSECTIONVIEWSTYLE
  2
AcDbSectionViewStyle
  3
ObjectDBX Classes
 90
1025
 91
0
280
0
281
0
  0
CLASS
  1
RASTERVARIABLES
  2
AcDbRasterVariables
  3
ISM
 90
0
 91
0
280
0
281
0
  0
CLASS
  1
ACDBPLACEHOLDER
  2
AcDbPlaceHolder
  3
ObjectDBX Classes
 90
0
 91
0
280
0
281
0
  0
CLASS
  1
LAYOUT
  2
AcDbLayout
  3
ObjectDBX Classes
 90
0
 91
0
280
0
281
0
  0
ENDSEC
  0
SECTION
  2
TABLES
  0
TABLE
  2
VPORT
  5
8
330
0
100
AcDbSymbolTable
 70
1
  0
VPORT
  5
23
330
8
100
AcDbSymbolTableRecord
100
AcDbViewportTableRecord
  2
*Active
 70
0
 10
0.0
 20
0.0
 11
1.0
 21
1.0
 12
0.0
 22
0.0
 13
0.0
 23
0.0
 14
0.5
 24
0.5
 15
0.5
 25
0.5
 16
0.0
 26
0.0
 36
1.0
 17
0.0
 27
0.0
 37
0.0
 40
1000.0
 41
1.34
 42
50.0
 43
0.0
 44
0.0
 50
0.0
 51
0.0
 71
0
 72
1000
 73
1
 74
3
 75
0
 76
0
 77
0
 78
0
281
0
 65
0
146
0.0
  0
ENDTAB
  0
TABLE
  2
LTYPE
  5
2
330
0
100
AcDbSymbolTable
 70
3
  0
LTYPE
  5
24
330
2
100
AcDbSymbolTableRecord
100
AcDbLinetypeTableRecord
  2
ByBlock
 70
0
  3

 72
65
 73
0
 40
0.0
  0
LTYPE
  5
25
330
2
100
AcDbSymbolTableRecord
100
AcDbLinetypeTableRecord
  2
ByLayer
 70
0
  3

 72
65
 73
0
 40
0.0
  0
LTYPE
  5
26
330
2
100
AcDbSymbolTableRecord
100
AcDbLinetypeTableRecord
  2
Continuous
 70
0
  3

 72
65
 73
0
 40
0.0
  0
ENDTAB
  0
TABLE
  2
LAYER
  5
1
330
0
100
AcDbSymbolTable
 70
21
  0
LAYER
  5
27
330
1
100
AcDbSymbolTableRecord
100
AcDbLayerTableRecord
  2
0
 70
0
 62
7
  6
Continuous
370
-3
390
13
347
21
  0
LAYER
  5
28
330
1
100
AcDbSymbolTableRecord
100
AcDbLayerTableRecord
  2
Defpoints
 70
0
 62
7
  6
Continuous
290
0
370
-3
390
13
347
21
  0
LAYER
  5
2F
330
1
100
AcDbSymbolTableRecord
100
AcDbLayerTableRecord
  2
Boundary
 70
0
 62
7
  6
Continuous
370
-3
390
13
347
21
  0
LAYER
  5
34
330
1
100
AcDbSymbolTableRecord
100
AcDbLayerTableRecord
  2
PoojaRoom
 70
0
 62
7
  6
Continuous
370
-3
390
13
347
21
  0
LAYER
  5
37
330
1
100
AcDbSymbolTableRecord
100
AcDbLayerTableRecord
  2
WashArea
 70
0
 62
7
  6
Continuous
370
-3
390
13
347
21
  0
LAYER
  5
39
330
1
100
AcDbSymbolTableRecord
100
AcDbLayerTableRecord
  2
Garden
 70
0
 62
7
  6
Continuous
370
-3
390
13
347
21
  0
LAYER
  5
3C
330
1
100
AcDbSymbolTableRecord
100
AcDbLayerTableRecord
  2
BedRoom1
 70
0
 62
7
  6
Continuous
370
-3
390
13
347
21
  0
LAYER
  5
41
330
1
100
AcDbSymbolTableRecord
100
AcDbLayerTableRecord
  2
Parking
 70
0
 62
7
  6
Continuous
370
-3
390
13
347
21
  0
LAYER
  5
45
330
1
100
AcDbSymbolTableRecord
100
AcDbLayerTableRecord
  2
LivingRoom1
 70
0
 62
7
  6
Continuous
370
-3
390
13
347
21
  0
LAYER
  5
47
330
1
100
AcDbSymbolTableRecord
100
AcDbLayerTableRecord
  2
BathRoom1
 70
0
 62
7
  6
Continuous
370
-3
390
13
347
21
  0
LAYER
  5
49
330
1
100
AcDbSymbolTableRecord
100
AcDbLayerTableRecord
  2
Kitchen
 70
0
 62
7
  6
Continuous
370
-3
390
13
347
21
  0
LAYER
  5
58
330
1
100
AcDbSymbolTableRecord
100
AcDbLayerTableRecord
  2
Staircase_outertwall
 70
0
 62
7
  6
Continuous
370
-3
390
13
347
21
  0
LAYER
  5
5A
330
1
100
AcDbSymbolTableRecord
100
AcDbLayerTableRecord
  2
DiningRoom
 70
0
 62
7
  6
Continuous
370
-3
390
13
347
21
  0
LAYER
  5
61
330
1
100
AcDbSymbolTableRecord
100
AcDbLayerTableRecord
  2
Entrance_Staircase
 70
0
 62
7
  6
Continuous
370
-3
390
13
347
21
  0
LAYER
  5
63
330
1
100
AcDbSymbolTableRecord
100
AcDbLayerTableRecord
  2
Staircase_innerwall
 70
0
 62
7
  6
Continuous
370
-3
390
13
347
21
  0
LAYER
  5
65
330
1
100
AcDbSymbolTableRecord
100
AcDbLayerTableRecord
  2
Staircase
 70
0
 62
7
  6
Continuous
370
-3
390
13
347
21
  0
LAYER
  5
86
330
1
100
AcDbSymbolTableRecord
100
AcDbLayerTableRecord
  2
WashArea_Staircase
 70
0
 62
7
  6
Continuous
370
-3
390
13
347
21
  0
LAYER
  5
8B
330
1
100
AcDbSymbolTableRecord
100
AcDbLayerTableRecord
  2
Main_gate
 70
0
 62
7
  6
Continuous
370
-3
390
13
347
21
  0
LAYER
  5
92
330
1
100
AcDbSymbolTableRecord
100
AcDbLayerTableRecord
  2
Door4fPanel
 70
0
 62
7
  6
Continuous
370
-3
390
13
347
21
  0
LAYER
  5
95
330
1
100
AcDbSymbolTableRecord
100
AcDbLayerTableRecord
  2
Door3fPanel
 70
0
 62
7
  6
Continuous
370
-3
390
13
347
21
  0
LAYER
  5
97
330
1
100
AcDbSymbolTableRecord
100
AcDbLayerTableRecord
  2
Door2.6fPanel
 70
0
 62
7
  6
Continuous
370
-3
390
13
347
21
  0
ENDTAB
  0
TABLE
  2
STYLE
  5
5
330
0
100
AcDbSymbolTable
 70
2
  0
STYLE
  5
29
330
5
100
AcDbSymbolTableRecord
100
AcDbTextStyleTableRecord
  2
Standard
 70
0
 40
0.0
 41
1.0
 50
0.0
 71
0
 42
2.5
  3
txt
  4

  0
STYLE
  5
E0
330
5
100
AcDbSymbolTableRecord
100
AcDbTextStyleTableRecord
  2
ArialStyle
 70
0
 40
0.0
 41
1.0
 50
0.0
 71
0
 42
2.5
  3
arial.ttf
  4

  0
ENDTAB
  0
TABLE
  2
VIEW
  5
7
330
0
100
AcDbSymbolTable
 70
0
  0
ENDTAB
  0
TABLE
  2
UCS
  5
6
330
0
100
AcDbSymbolTable
 70
0
  0
ENDTAB
  0
TABLE
  2
APPID
  5
3
330
0
100
AcDbSymbolTable
 70
3
  0
APPID
  5
2A
330
3
100
AcDbSymbolTableRecord
100
AcDbRegAppTableRecord
  2
ACAD
 70
0
  0
APPID
  5
F2
330
3
100
AcDbSymbolTableRecord
100
AcDbRegAppTableRecord
  2
HATCHBACKGROUNDCOLOR
 70
0
  0
APPID
  5
F3
330
3
100
AcDbSymbolTableRecord
100
AcDbRegAppTableRecord
  2
EZDXF
 70
0
  0
ENDTAB
  0
TABLE
  2
DIMSTYLE
  5
4
330
0
100
AcDbSymbolTable
 70
1
100
AcDbDimStyleTable
  0
DIMSTYLE
105
2B
330
4
100
AcDbSymbolTableRecord
100
AcDbDimStyleTableRecord
  2
Standard
 70
0
 40
1.0
 41
2.5
 42
0.625
 43
3.75
 44
1.25
 45
0.0
 46
0.0
 47
0.0
 48
0.0
 49
2.5
140
2.5
141
2.5
142
0.0
143
0.03937007874
144
1.0
145
0.0
146
1.0
147
0.625
148
0.0
 69
0
 70
0
 71
0
 72
0
 73
0
 74
0
 75
0
 76
0
 77
1
 78
8
 79
3
170
0
171
3
172
1
173
0
174
0
175
0
176
0
177
0
178
0
179
2
271
2
272
2
273
2
274
3
275
0
276
0
277
2
278
44
279
0
280
0
281
0
282
0
283
0
284
8
285
0
286
0
288
0
289
3
290
0
371
-2
372
-2
  0
ENDTAB
  0
TABLE
  2
BLOCK_RECORD
  5
9
330
0
100
AcDbSymbolTable
 70
2
  0
BLOCK_RECORD
  5
17
330
9
100
AcDbSymbolTableRecord
100
AcDbBlockTableRecord
  2
*Model_Space
340
1A
 70
0
280
1
281
0
  0
BLOCK_RECORD
  5
1B
330
9
100
AcDbSymbolTableRecord
100
AcDbBlockTableRecord
  2
*Paper_Space
340
1E
 70
0
280
1
281
0
  0
ENDTAB
  0
ENDSEC
  0
SECTION
  2
BLOCKS
  0
BLOCK
  5
18
330
17
100
AcDbEntity
  8
0
100
AcDbBlockBegin
  2
*Model_Space
 70
0
 10
0.0
 20
0.0
 30
0.0
  3
*Model_Space
  1

  0
ENDBLK
  5
19
330
17
100
AcDbEntity
  8
0
100
AcDbBlockEnd
  0
BLOCK
  5
1C
330
1B
100
AcDbEntity
  8
0
100
AcDbBlockBegin
  2
*Paper_Space
 70
0
 10
0.0
 20
0.0
 30
0.0
  3
*Paper_Space
  1

  0
ENDBLK
  5
1D
330
1B
100
AcDbEntity
  8
0
100
AcDbBlockEnd
  0
ENDSEC
  0
SECTION
  2
ENTITIES
  0
LINE
  5
30
330
17
100
AcDbEntity
  8
Boundary
420
8421504
100
AcDbLine
 10
0.0
 20
511.9999999999999
 30
0.0
 11
362.99999999999983
 21
511.9999999999999
 31
0.0
  0
LINE
  5
31
330
17
100
AcDbEntity
  8
Boundary
420
8421504
100
AcDbLine
 10
362.99999999999983
 20
0.0
 30
0.0
 11
362.99999999999983
 21
511.9999999999999
 31
0.0
  0
LINE
  5
32
330
17
100
AcDbEntity
  8
Boundary
420
8421504
100
AcDbLine
 10
0.0
 20
0.0
 30
0.0
 11
0.0
 21
511.9999999999999
 31
0.0
  0
LINE
  5
33
330
17
100
AcDbEntity
  8
Boundary
420
8421504
100
AcDbLine
 10
0.0
 20
0.0
 30
0.0
 11
8.999999999999943
 21
0.0
 31
0.0
  0
LINE
  5
35
330
17
100
AcDbEntity
  8
PoojaRoom
420
8421504
100
AcDbLine
 10
8.999999999999943
 20
430.9999999999999
 30
0.0
 11
8.999999999999943
 21
502.9999999999999
 31
0.0
  0
LINE
  5
36
330
17
100
AcDbEntity
  8
PoojaRoom
420
8421504
100
AcDbLine
 10
8.999999999999943
 20
502.9999999999999
 30
0.0
 11
80.99999999999994
 21
502.9999999999999
 31
0.0
  0
LINE
  5
38
330
17
100
AcDbEntity
  8
WashArea
420
8421504
100
AcDbLine
 10
353.99999999999983
 20
214.9999999999999
 30
0.0
 11
353.99999999999983
 21
502.9999999999999
 31
0.0
  0
LINE
  5
3A
330
17
100
AcDbEntity
  8
Garden
420
8421504
100
AcDbLine
 10
176.99999999999994
 20
8.999999999999773
 30
0.0
 11
353.99999999999983
 21
9.0
 31
0.0
  0
LINE
  5
3B
330
17
100
AcDbEntity
  8
WashArea
420
8421504
100
AcDbLine
 10
317.9999999999996
 20
214.9999999999999
 30
0.0
 11
317.9999999999996
 21
449.9999999999999
 31
0.0
  0
LINE
  5
3D
330
17
100
AcDbEntity
  8
BedRoom1
420
8421504
100
AcDbLine
 10
185.99999999999994
 20
54.0
 30
0.0
 11
185.99999999999994
 21
214.9999999999999
 31
0.0
  0
LINE
  5
3E
330
17
100
AcDbEntity
  8
BedRoom1
420
8421504
100
AcDbLine
 10
221.76541684347734
 20
209.99999999999977
 30
0.0
 11
226.76541684347723
 21
209.99999999999977
 31
0.0
  0
LINE
  5
3F
330
17
100
AcDbEntity
  8
Garden
420
8421504
100
AcDbLine
 10
176.99999999999994
 20
45.0
 30
0.0
 11
353.99999999999983
 21
45.0
 31
0.0
  0
LINE
  5
40
330
17
100
AcDbEntity
  8
BedRoom1
420
8421504
100
AcDbLine
 10
185.99999999999994
 20
54.0
 30
0.0
 11
353.99999999999983
 21
54.0
 31
0.0
  0
LINE
  5
42
330
17
100
AcDbEntity
  8
Parking
420
8421504
100
AcDbLine
 10
176.99999999999994
 20
1.1368683772161603e-13
 30
0.0
 11
177.0
 21
214.9999999999999
 31
0.0
  0
LINE
  5
43
330
17
100
AcDbEntity
  8
BedRoom1
420
8421504
100
AcDbLine
 10
353.99999999999983
 20
54.0
 30
0.0
 11
353.99999999999983
 21
209.9999999999999
 31
0.0
  0
LINE
  5
44
330
17
100
AcDbEntity
  8
Garden
420
8421504
100
AcDbLine
 10
353.99999999999983
 20
9.0
 30
0.0
 11
353.99999999999983
 21
45.0
 31
0.0
  0
LINE
  5
46
330
17
100
AcDbEntity
  8
LivingRoom1
420
8421504
100
AcDbLine
 10
221.76541684347734
 20
251.9999999999998
 30
0.0
 11
221.76541684347734
 21
363.9999999999998
 31
0.0
  0
LINE
  5
48
330
17
100
AcDbEntity
  8
BathRoom1
420
8421504
100
AcDbLine
 10
226.76541684347723
 20
298.9999999999998
 30
0.0
 11
309.00000000000006
 21
298.9999999999999
 31
0.0
  0
LINE
  5
4A
330
17
100
AcDbEntity
  8
Kitchen
420
8421504
100
AcDbLine
 10
226.76541684347723
 20
303.9999999999998
 30
0.0
 11
309.00000000000006
 21
303.9999999999999
 31
0.0
  0
LINE
  5
4B
330
17
100
AcDbEntity
  8
BathRoom1
420
8421504
100
AcDbLine
 10
308.9999999999997
 20
214.9999999999999
 30
0.0
 11
309.00000000000006
 21
298.9999999999999
 31
0.0
  0
LINE
  5
4C
330
17
100
AcDbEntity
  8
BathRoom1
420
8421504
100
AcDbLine
 10
256.7654168434771
 20
214.99999999999977
 30
0.0
 11
308.9999999999997
 21
214.9999999999999
 31
0.0
  0
LINE
  5
4D
330
17
100
AcDbEntity
  8
Kitchen
420
8421504
100
AcDbLine
 10
226.76541684347723
 20
303.9999999999998
 30
0.0
 11
226.76541684347723
 21
363.99999999999966
 31
0.0
  0
LINE
  5
4E
330
17
100
AcDbEntity
  8
WashArea
420
8421504
100
AcDbLine
 10
317.9999999999996
 20
214.9999999999999
 30
0.0
 11
353.99999999999983
 21
214.9999999999999
 31
0.0
  0
LINE
  5
4F
330
17
100
AcDbEntity
  8
BedRoom1
420
8421504
100
AcDbLine
 10
256.7654168434771
 20
209.99999999999977
 30
0.0
 11
256.7654168434771
 21
214.99999999999977
 31
0.0
  0
LINE
  5
50
330
17
100
AcDbEntity
  8
BedRoom1
420
8421504
100
AcDbLine
 10
256.7654168434771
 20
209.99999999999977
 30
0.0
 11
353.99999999999983
 21
209.9999999999999
 31
0.0
  0
LINE
  5
51
330
17
100
AcDbEntity
  8
Parking
420
8421504
100
AcDbLine
 10
8.999999999999943
 20
0.0
 30
0.0
 11
8.999999999999943
 21
205.9999999999999
 31
0.0
  0
LINE
  5
52
330
17
100
AcDbEntity
  8
Kitchen
420
8421504
100
AcDbLine
 10
194.0000000000001
 20
444.9999999999998
 30
0.0
 11
309.00000000000006
 21
444.9999999999999
 31
0.0
  0
LINE
  5
53
330
17
100
AcDbEntity
  8
Kitchen
420
8421504
100
AcDbLine
 10
221.7654168434771
 20
363.99999999999966
 30
0.0
 11
226.76541684347723
 21
363.9999999999998
 31
0.0
  0
LINE
  5
54
330
17
100
AcDbEntity
  8
BathRoom1
420
8421504
100
AcDbLine
 10
226.76541684347723
 20
251.9999999999998
 30
0.0
 11
226.76541684347723
 21
298.9999999999998
 31
0.0
  0
LINE
  5
55
330
17
100
AcDbEntity
  8
Kitchen
420
8421504
100
AcDbLine
 10
309.00000000000006
 20
303.9999999999999
 30
0.0
 11
309.00000000000006
 21
444.9999999999999
 31
0.0
  0
LINE
  5
56
330
17
100
AcDbEntity
  8
PoojaRoom
420
8421504
100
AcDbLine
 10
80.99999999999994
 20
490.9999999999999
 30
0.0
 11
80.99999999999994
 21
502.9999999999999
 31
0.0
  0
LINE
  5
57
330
17
100
AcDbEntity
  8
PoojaRoom
420
8421504
100
AcDbLine
 10
8.999999999999943
 20
430.9999999999999
 30
0.0
 11
80.99999999999994
 21
430.9999999999999
 31
0.0
  0
LINE
  5
59
330
17
100
AcDbEntity
  8
Staircase_outertwall
420
8421504
100
AcDbLine
 10
8.999999999999943
 20
425.9999999999999
 30
0.0
 11
85.99999999999994
 21
425.9999999999999
 31
0.0
  0
LINE
  5
5B
330
17
100
AcDbEntity
  8
DiningRoom
420
8421504
100
AcDbLine
 10
85.99999999999994
 20
490.9999999999999
 30
0.0
 11
85.99999999999994
 21
502.9999999999999
 31
0.0
  0
LINE
  5
5C
330
17
100
AcDbEntity
  8
Staircase_outertwall
420
8421504
100
AcDbLine
 10
8.999999999999943
 20
214.9999999999999
 30
0.0
 11
8.999999999999943
 21
425.9999999999999
 31
0.0
  0
LINE
  5
5D
330
17
100
AcDbEntity
  8
PoojaRoom
420
8421504
100
AcDbLine
 10
80.99999999999994
 20
490.9999999999999
 30
0.0
 11
85.99999999999994
 21
490.9999999999999
 31
0.0
  0
LINE
  5
5E
330
17
100
AcDbEntity
  8
PoojaRoom
420
8421504
100
AcDbLine
 10
80.99999999999994
 20
442.9999999999999
 30
0.0
 11
85.99999999999994
 21
442.9999999999999
 31
0.0
  0
LINE
  5
5F
330
17
100
AcDbEntity
  8
DiningRoom
420
8421504
100
AcDbLine
 10
85.99999999999994
 20
425.9999999999999
 30
0.0
 11
85.99999999999994
 21
442.9999999999999
 31
0.0
  0
LINE
  5
60
330
17
100
AcDbEntity
  8
PoojaRoom
420
8421504
100
AcDbLine
 10
80.99999999999994
 20
430.9999999999999
 30
0.0
 11
80.99999999999994
 21
442.9999999999999
 31
0.0
  0
LINE
  5
62
330
17
100
AcDbEntity
  8
Entrance_Staircase
420
8421504
100
AcDbLine
 10
176.99999999999994
 20
214.9999999999999
 30
0.0
 11
185.99999999999994
 21
215.0000000000001
 31
0.0
  0
LINE
  5
64
330
17
100
AcDbEntity
  8
Staircase_innerwall
420
8421504
100
AcDbLine
 10
58.9999999999996
 20
214.9999999999999
 30
0.0
 11
58.9999999999996
 21
425.9999999999999
 31
0.0
  0
LINE
  5
66
330
17
100
AcDbEntity
  8
Staircase
420
8421504
100
AcDbLine
 10
8.999999999999943
 20
254.9999999999999
 30
0.0
 11
68.99999999999994
 21
254.9999999999999
 31
0.0
  0
LINE
  5
67
330
17
100
AcDbEntity
  8
Staircase
420
8421504
100
AcDbLine
 10
8.999999999999943
 20
264.9999999999999
 30
0.0
 11
58.99999999999994
 21
264.9999999999999
 31
0.0
  0
LINE
  5
68
330
17
100
AcDbEntity
  8
Staircase
420
8421504
100
AcDbLine
 10
8.999999999999943
 20
274.9999999999999
 30
0.0
 11
58.99999999999994
 21
275.0
 31
0.0
  0
LINE
  5
69
330
17
100
AcDbEntity
  8
Staircase
420
8421504
100
AcDbLine
 10
8.999999999999943
 20
284.9999999999999
 30
0.0
 11
58.99999999999994
 21
285.0
 31
0.0
  0
LINE
  5
6A
330
17
100
AcDbEntity
  8
Staircase
420
8421504
100
AcDbLine
 10
8.999999999999943
 20
294.9999999999999
 30
0.0
 11
58.99999999999994
 21
295.0
 31
0.0
  0
LINE
  5
6B
330
17
100
AcDbEntity
  8
Staircase
420
8421504
100
AcDbLine
 10
8.999999999999943
 20
304.9999999999999
 30
0.0
 11
58.99999999999994
 21
305.0
 31
0.0
  0
LINE
  5
6C
330
17
100
AcDbEntity
  8
Staircase
420
8421504
100
AcDbLine
 10
8.999999999999943
 20
314.9999999999999
 30
0.0
 11
58.99999999999994
 21
314.9999999999999
 31
0.0
  0
LINE
  5
6D
330
17
100
AcDbEntity
  8
Staircase
420
8421504
100
AcDbLine
 10
8.999999999999943
 20
324.9999999999999
 30
0.0
 11
58.99999999999994
 21
325.0
 31
0.0
  0
LINE
  5
6E
330
17
100
AcDbEntity
  8
Staircase
420
8421504
100
AcDbLine
 10
8.999999999999943
 20
334.9999999999999
 30
0.0
 11
58.99999999999994
 21
335.0
 31
0.0
  0
LINE
  5
6F
330
17
100
AcDbEntity
  8
Staircase
420
8421504
100
AcDbLine
 10
8.999999999999943
 20
344.9999999999999
 30
0.0
 11
58.99999999999994
 21
345.0
 31
0.0
  0
LINE
  5
70
330
17
100
AcDbEntity
  8
Staircase
420
8421504
100
AcDbLine
 10
8.999999999999943
 20
354.9999999999999
 30
0.0
 11
58.99999999999994
 21
355.0
 31
0.0
  0
LINE
  5
71
330
17
100
AcDbEntity
  8
Staircase
420
8421504
100
AcDbLine
 10
8.99999999999983
 20
364.9999999999999
 30
0.0
 11
58.99999999999994
 21
364.9999999999999
 31
0.0
  0
LINE
  5
72
330
17
100
AcDbEntity
  8
Staircase
420
8421504
100
AcDbLine
 10
8.99999999999983
 20
374.9999999999999
 30
0.0
 11
58.99999999999994
 21
374.9999999999999
 31
0.0
  0
LINE
  5
73
330
17
100
AcDbEntity
  8
Staircase
420
8421504
100
AcDbLine
 10
8.99999999999983
 20
384.9999999999999
 30
0.0
 11
68.9999999999996
 21
385.0
 31
0.0
  0
LINE
  5
74
330
17
100
AcDbEntity
  8
DiningRoom
420
8421504
100
AcDbLine
 10
85.99999999999994
 20
502.9999999999999
 30
0.0
 11
194.0
 21
502.9999999999999
 31
0.0
  0
LINE
  5
75
330
17
100
AcDbEntity
  8
Staircase
420
8421504
100
AcDbLine
 10
68.99999999999994
 20
214.9999999999999
 30
0.0
 11
68.99999999999994
 21
254.9999999999999
 31
0.0
  0
LINE
  5
76
330
17
100
AcDbEntity
  8
Staircase
420
8421504
100
AcDbLine
 10
68.99999999999994
 20
385.0
 30
0.0
 11
68.99999999999994
 21
425.9999999999999
 31
0.0
  0
LINE
  5
77
330
17
100
AcDbEntity
  8
Staircase_innerwall
420
8421504
100
AcDbLine
 10
61.9999999999996
 20
254.9999999999999
 30
0.0
 11
61.99999999999994
 21
385.0
 31
0.0
  0
LINE
  5
78
330
17
100
AcDbEntity
  8
BathRoom1
420
8421504
100
AcDbLine
 10
221.76541684347734
 20
221.99999999999977
 30
0.0
 11
226.76541684347723
 21
221.99999999999977
 31
0.0
  0
LINE
  5
79
330
17
100
AcDbEntity
  8
BathRoom1
420
8421504
100
AcDbLine
 10
221.76541684347734
 20
251.9999999999998
 30
0.0
 11
226.76541684347723
 21
251.9999999999998
 31
0.0
  0
LINE
  5
7A
330
17
100
AcDbEntity
  8
BathRoom1
420
8421504
100
AcDbLine
 10
226.76541684347723
 20
209.99999999999977
 30
0.0
 11
226.76541684347723
 21
221.99999999999977
 31
0.0
  0
LINE
  5
7B
330
17
100
AcDbEntity
  8
LivingRoom1
420
8421504
100
AcDbLine
 10
221.76541684347734
 20
209.99999999999977
 30
0.0
 11
221.76541684347734
 21
221.99999999999977
 31
0.0
  0
LINE
  5
7C
330
17
100
AcDbEntity
  8
DiningRoom
420
8421504
100
AcDbLine
 10
194.0000000000001
 20
444.9999999999998
 30
0.0
 11
194.0
 21
449.9999999999998
 31
0.0
  0
LINE
  5
7D
330
17
100
AcDbEntity
  8
Entrance_Staircase
420
8421504
100
AcDbLine
 10
128.99999999999972
 20
205.9999999999999
 30
0.0
 11
128.99999999999972
 21
214.9999999999999
 31
0.0
  0
LINE
  5
7E
330
17
100
AcDbEntity
  8
Staircase_outertwall
420
8421504
100
AcDbLine
 10
8.999999999999943
 20
214.9999999999999
 30
0.0
 11
128.99999999999994
 21
214.9999999999999
 31
0.0
  0
LINE
  5
7F
330
17
100
AcDbEntity
  8
Entrance_Staircase
420
8421504
100
AcDbLine
 10
113.35257051162193
 20
176.0
 30
0.0
 11
176.99999999999994
 21
176.0
 31
0.0
  0
LINE
  5
80
330
17
100
AcDbEntity
  8
Entrance_Staircase
420
8421504
100
AcDbLine
 10
103.35257051162193
 20
166.0
 30
0.0
 11
176.99999999999994
 21
166.0
 31
0.0
  0
LINE
  5
81
330
17
100
AcDbEntity
  8
Entrance_Staircase
420
8421504
100
AcDbLine
 10
93.35257051162193
 20
156.0
 30
0.0
 11
176.99999999999994
 21
156.0
 31
0.0
  0
LINE
  5
82
330
17
100
AcDbEntity
  8
Entrance_Staircase
420
8421504
100
AcDbLine
 10
113.35257051162193
 20
176.0
 30
0.0
 11
113.35257051162193
 21
205.9999999999999
 31
0.0
  0
LINE
  5
83
330
17
100
AcDbEntity
  8
Entrance_Staircase
420
8421504
100
AcDbLine
 10
103.35257051162193
 20
166.0
 30
0.0
 11
103.35257051162193
 21
205.9999999999999
 31
0.0
  0
LINE
  5
84
330
17
100
AcDbEntity
  8
Entrance_Staircase
420
8421504
100
AcDbLine
 10
93.35257051162193
 20
156.0
 30
0.0
 11
93.35257051162193
 21
205.9999999999999
 31
0.0
  0
LINE
  5
85
330
17
100
AcDbEntity
  8
DiningRoom
420
8421504
100
AcDbLine
 10
194.0000000000001
 20
479.9999999999998
 30
0.0
 11
194.0000000000001
 21
502.9999999999999
 31
0.0
  0
LINE
  5
87
330
17
100
AcDbEntity
  8
WashArea_Staircase
420
8421504
100
AcDbLine
 10
199.0
 20
479.9999999999998
 30
0.0
 11
199.0
 21
502.9999999999999
 31
0.0
  0
LINE
  5
88
330
17
100
AcDbEntity
  8
WashArea_Staircase
420
8421504
100
AcDbLine
 10
194.0000000000001
 20
479.9999999999998
 30
0.0
 11
199.0000000000001
 21
479.9999999999998
 31
0.0
  0
LINE
  5
89
330
17
100
AcDbEntity
  8
Boundary
420
8421504
100
AcDbLine
 10
176.99999999999994
 20
1.1368683772161603e-13
 30
0.0
 11
362.99999999999983
 21
0.0
 31
0.0
  0
LINE
  5
8A
330
17
100
AcDbEntity
  8
Parking
420
8421504
100
AcDbLine
 10
8.999999999999943
 20
205.9999999999999
 30
0.0
 11
128.99999999999972
 21
205.9999999999999
 31
0.0
  0
LINE
  5
8C
330
17
100
AcDbEntity
  8
Main_gate
420
8421504
100
AcDbLine
 10
8.999999999999943
 20
4.0
 30
0.0
 11
176.99999999999994
 21
4.0
 31
0.0
  0
LINE
  5
8D
330
17
100
AcDbEntity
  8
WashArea_Staircase
420
8421504
100
AcDbLine
 10
235.0678409805259
 20
449.9999999999998
 30
0.0
 11
235.0678409805259
 21
502.9999999999999
 31
0.0
  0
LINE
  5
8E
330
17
100
AcDbEntity
  8
WashArea_Staircase
420
8421504
100
AcDbLine
 10
245.06784098052577
 20
449.9999999999998
 30
0.0
 11
245.06784098052577
 21
502.9999999999999
 31
0.0
  0
LINE
  5
8F
330
17
100
AcDbEntity
  8
WashArea_Staircase
420
8421504
100
AcDbLine
 10
255.06784098052577
 20
449.99999999999983
 30
0.0
 11
255.06784098052577
 21
502.99999999999994
 31
0.0
  0
LINE
  5
90
330
17
100
AcDbEntity
  8
WashArea
420
8421504
100
AcDbLine
 10
194.0
 20
449.99999999999983
 30
0.0
 11
317.9999999999996
 21
449.99999999999983
 31
0.0
  0
LINE
  5
91
330
17
100
AcDbEntity
  8
WashArea
420
8421504
100
AcDbLine
 10
199.0
 20
502.9999999999999
 30
0.0
 11
353.99999999999983
 21
502.9999999999999
 31
0.0
  0
LINE
  5
93
330
17
100
AcDbEntity
  8
Door4fPanel
420
8421504
100
AcDbLine
 10
83.49999999999994
 20
442.9999999999999
 30
0.0
 11
83.49999999999994
 21
490.9999999999999
 31
0.0
  0
LINE
  5
94
330
17
100
AcDbEntity
  8
Door4fPanel
420
8421504
100
AcDbLine
 10
128.99999999999972
 20
210.5
 30
0.0
 11
176.9999999999984
 21
210.5000000000012
 31
0.0
  0
LINE
  5
96
330
17
100
AcDbEntity
  8
Door3fPanel
420
8421504
100
AcDbLine
 10
185.99999999999994
 20
210.50000000000136
 30
0.0
 11
221.76541684347734
 21
210.50000000000136
 31
0.0
  0
LINE
  5
98
330
17
100
AcDbEntity
  8
Door2.6fPanel
420
8421504
100
AcDbLine
 10
226.76541684347723
 20
212.49999999999977
 30
0.0
 11
256.7654168434771
 21
212.49999999999977
 31
0.0
  0
LINE
  5
99
330
17
100
AcDbEntity
  8
Door2.6fPanel
420
8421504
100
AcDbLine
 10
224.26541684347734
 20
221.99999999999977
 30
0.0
 11
224.26541684347734
 21
251.9999999999998
 31
0.0
  0
LINE
  5
9A
330
17
100
AcDbEntity
  8
Door2.6fPanel
420
8421504
100
AcDbLine
 10
196.49999999999994
 20
449.9999999999998
 30
0.0
 11
196.49999999999994
 21
479.9999999999998
 31
0.0
  0
LINE
  5
9B
330
17
100
AcDbEntity
  8
Kitchen
420
8421504
100
AcDbLine
 10
284.00000000000006
 20
303.9999999999999
 30
0.0
 11
284.00000000000006
 21
444.9999999999999
 31
0.0
  0
LWPOLYLINE
  5
BE
330
17
100
AcDbEntity
  8
column
 62
1
100
AcDbPolyline
 90
5
 70
1
 10
0.0
 20
0.0
 10
9.0
 20
0.0
 10
9.0
 20
12.0
 10
0.0
 20
12.0
 10
0.0
 20
0.0
  0
HATCH
  5
BF
330
17
100
AcDbEntity
  8
column
 62
1
100
AcDbHatch
 10
0.0
 20
0.0
 30
0.0
210
0.0
220
0.0
230
1.0
  2
SOLID
 70
1
 71
0
 91
1
 92
3
 72
0
 73
1
 93
5
 10
0.0
 20
0.0
 10
9.0
 20
0.0
 10
9.0
 20
12.0
 10
0.0
 20
12.0
 10
0.0
 20
0.0
 97
0
 75
0
 76
1
 98
0
  0
LWPOLYLINE
  5
C0
330
17
100
AcDbEntity
  8
column
 62
1
100
AcDbPolyline
 90
5
 70
1
 10
0.0
 20
499.9999999999999
 10
9.0
 20
499.9999999999999
 10
9.0
 20
511.9999999999999
 10
0.0
 20
511.9999999999999
 10
0.0
 20
499.9999999999999
  0
HATCH
  5
C1
330
17
100
AcDbEntity
  8
column
 62
1
100
AcDbHatch
 10
0.0
 20
0.0
 30
0.0
210
0.0
220
0.0
230
1.0
  2
SOLID
 70
1
 71
0
 91
1
 92
3
 72
0
 73
1
 93
5
 10
0.0
 20
499.9999999999999
 10
9.0
 20
499.9999999999999
 10
9.0
 20
511.9999999999999
 10
0.0
 20
511.9999999999999
 10
0.0
 20
499.9999999999999
 97
0
 75
0
 76
1
 98
0
  0
LWPOLYLINE
  5
C2
330
17
100
AcDbEntity
  8
column
 62
1
100
AcDbPolyline
 90
5
 70
1
 10
353.99999999999983
 20
499.9999999999999
 10
362.99999999999983
 20
499.9999999999999
 10
362.99999999999983
 20
511.9999999999999
 10
353.99999999999983
 20
511.9999999999999
 10
353.99999999999983
 20
499.9999999999999
  0
HATCH
  5
C3
330
17
100
AcDbEntity
  8
column
 62
1
100
AcDbHatch
 10
0.0
 20
0.0
 30
0.0
210
0.0
220
0.0
230
1.0
  2
SOLID
 70
1
 71
0
 91
1
 92
3
 72
0
 73
1
 93
5
 10
353.99999999999983
 20
499.9999999999999
 10
362.99999999999983
 20
499.9999999999999
 10
362.99999999999983
 20
511.9999999999999
 10
353.99999999999983
 20
511.9999999999999
 10
353.99999999999983
 20
499.9999999999999
 97
0
 75
0
 76
1
 98
0
  0
LWPOLYLINE
  5
C4
330
17
100
AcDbEntity
  8
column
 62
1
100
AcDbPolyline
 90
5
 70
1
 10
353.99999999999983
 20
0.0
 10
362.99999999999983
 20
0.0
 10
362.99999999999983
 20
12.0
 10
353.99999999999983
 20
12.0
 10
353.99999999999983
 20
0.0
  0
HATCH
  5
C5
330
17
100
AcDbEntity
  8
column
 62
1
100
AcDbHatch
 10
0.0
 20
0.0
 30
0.0
210
0.0
220
0.0
230
1.0
  2
SOLID
 70
1
 71
0
 91
1
 92
3
 72
0
 73
1
 93
5
 10
353.99999999999983
 20
0.0
 10
362.99999999999983
 20
0.0
 10
362.99999999999983
 20
12.0
 10
353.99999999999983
 20
12.0
 10
353.99999999999983
 20
0.0
 97
0
 75
0
 76
1
 98
0
  0
LWPOLYLINE
  5
C6
330
17
100
AcDbEntity
  8
column
 62
1
100
AcDbPolyline
 90
5
 70
1
 10
9.0
 20
205.0
 10
9.0
 20
217.0
 10
0.0
 20
217.0
 10
0.0
 20
205.0
 10
9.0
 20
205.0
  0
HATCH
  5
C7
330
17
100
AcDbEntity
  8
column
 62
1
100
AcDbHatch
 10
0.0
 20
0.0
 30
0.0
210
0.0
220
0.0
230
1.0
  2
SOLID
 70
1
 71
0
 91
1
 92
3
 72
0
 73
1
 93
5
 10
9.0
 20
205.0
 10
9.0
 20
217.0
 10
0.0
 20
217.0
 10
0.0
 20
205.0
 10
9.0
 20
205.0
 97
0
 75
0
 76
1
 98
0
  0
LWPOLYLINE
  5
C8
330
17
100
AcDbEntity
  8
column
 62
1
100
AcDbPolyline
 90
5
 70
1
 10
9.0
 20
425.0
 10
9.0
 20
437.0
 10
0.0
 20
437.0
 10
0.0
 20
425.0
 10
9.0
 20
425.0
  0
HATCH
  5
C9
330
17
100
AcDbEntity
  8
column
 62
1
100
AcDbHatch
 10
0.0
 20
0.0
 30
0.0
210
0.0
220
0.0
230
1.0
  2
SOLID
 70
1
 71
0
 91
1
 92
3
 72
0
 73
1
 93
5
 10
9.0
 20
425.0
 10
9.0
 20
437.0
 10
0.0
 20
437.0
 10
0.0
 20
425.0
 10
9.0
 20
425.0
 97
0
 75
0
 76
1
 98
0
  0
LWPOLYLINE
  5
CA
330
17
100
AcDbEntity
  8
column
 62
1
100
AcDbPolyline
 90
5
 70
1
 10
80.0
 20
503.0
 10
92.0
 20
503.0
 10
92.0
 20
512.0
 10
80.0
 20
512.0
 10
80.0
 20
503.0
  0
HATCH
  5
CB
330
17
100
AcDbEntity
  8
column
 62
1
100
AcDbHatch
 10
0.0
 20
0.0
 30
0.0
210
0.0
220
0.0
230
1.0
  2
SOLID
 70
1
 71
0
 91
1
 92
3
 72
0
 73
1
 93
5
 10
80.0
 20
503.0
 10
92.0
 20
503.0
 10
92.0
 20
512.0
 10
80.0
 20
512.0
 10
80.0
 20
503.0
 97
0
 75
0
 76
1
 98
0
  0
LWPOLYLINE
  5
CC
330
17
100
AcDbEntity
  8
column
 62
1
100
AcDbPolyline
 90
5
 70
1
 10
194.0
 20
503.0
 10
206.0
 20
503.0
 10
206.0
 20
512.0
 10
194.0
 20
512.0
 10
194.0
 20
503.0
  0
HATCH
  5
CD
330
17
100
AcDbEntity
  8
column
 62
1
100
AcDbHatch
 10
0.0
 20
0.0
 30
0.0
210
0.0
220
0.0
230
1.0
  2
SOLID
 70
1
 71
0
 91
1
 92
3
 72
0
 73
1
 93
5
 10
194.0
 20
503.0
 10
206.0
 20
503.0
 10
206.0
 20
512.0
 10
194.0
 20
512.0
 10
194.0
 20
503.0
 97
0
 75
0
 76
1
 98
0
  0
LWPOLYLINE
  5
CE
330
17
100
AcDbEntity
  8
column
 62
1
100
AcDbPolyline
 90
5
 70
1
 10
354.0
 20
45.0
 10
363.0
 20
45.0
 10
363.0
 20
57.0
 10
354.0
 20
57.0
 10
354.0
 20
45.0
  0
HATCH
  5
CF
330
17
100
AcDbEntity
  8
column
 62
1
100
AcDbHatch
 10
0.0
 20
0.0
 30
0.0
210
0.0
220
0.0
230
1.0
  2
SOLID
 70
1
 71
0
 91
1
 92
3
 72
0
 73
1
 93
5
 10
354.0
 20
45.0
 10
363.0
 20
45.0
 10
363.0
 20
57.0
 10
354.0
 20
57.0
 10
354.0
 20
45.0
 97
0
 75
0
 76
1
 98
0
  0
LWPOLYLINE
  5
D0
330
17
100
AcDbEntity
  8
column
 62
1
100
AcDbPolyline
 90
5
 70
1
 10
354.0
 20
209.0
 10
363.0
 20
209.0
 10
363.0
 20
221.0
 10
354.0
 20
221.0
 10
354.0
 20
209.0
  0
HATCH
  5
D1
330
17
100
AcDbEntity
  8
column
 62
1
100
AcDbHatch
 10
0.0
 20
0.0
 30
0.0
210
0.0
220
0.0
230
1.0
  2
SOLID
 70
1
 71
0
 91
1
 92
3
 72
0
 73
1
 93
5
 10
354.0
 20
209.0
 10
363.0
 20
209.0
 10
363.0
 20
221.0
 10
354.0
 20
221.0
 10
354.0
 20
209.0
 97
0
 75
0
 76
1
 98
0
  0
LWPOLYLINE
  5
D2
330
17
100
AcDbEntity
  8
column
 62
1
100
AcDbPolyline
 90
5
 70
1
 10
226.76541684347723
 20
298.9999999999998
 10
217.76541684347723
 20
298.9999999999998
 10
217.76541684347723
 20
310.9999999999998
 10
226.76541684347723
 20
310.9999999999998
 10
226.76541684347723
 20
298.9999999999998
  0
HATCH
  5
D3
330
17
100
AcDbEntity
  8
column
 62
1
100
AcDbHatch
 10
0.0
 20
0.0
 30
0.0
210
0.0
220
0.0
230
1.0
  2
SOLID
 70
1
 71
0
 91
1
 92
3
 72
0
 73
1
 93
5
 10
226.76541684347723
 20
298.9999999999998
 10
217.76541684347723
 20
298.9999999999998
 10
217.76541684347723
 20
310.9999999999998
 10
226.76541684347723
 20
310.9999999999998
 10
226.76541684347723
 20
298.9999999999998
 97
0
 75
0
 76
1
 98
0
  0
LWPOLYLINE
  5
D4
330
17
100
AcDbEntity
  8
column
 62
1
100
AcDbPolyline
 90
5
 70
1
 10
221.76541684347734
 20
209.99999999999977
 10
233.76541684347734
 20
209.99999999999977
 10
233.76541684347734
 20
218.99999999999977
 10
221.76541684347734
 20
218.99999999999977
 10
221.76541684347734
 20
209.99999999999977
  0
HATCH
  5
D5
330
17
100
AcDbEntity
  8
column
 62
1
100
AcDbHatch
 10
0.0
 20
0.0
 30
0.0
210
0.0
220
0.0
230
1.0
  2
SOLID
 70
1
 71
0
 91
1
 92
3
 72
0
 73
1
 93
5
 10
221.76541684347734
 20
209.99999999999977
 10
233.76541684347734
 20
209.99999999999977
 10
233.76541684347734
 20
218.99999999999977
 10
221.76541684347734
 20
218.99999999999977
 10
221.76541684347734
 20
209.99999999999977
 97
0
 75
0
 76
1
 98
0
  0
LWPOLYLINE
  5
D6
330
17
100
AcDbEntity
  8
column
 62
1
100
AcDbPolyline
 90
5
 70
1
 10
176.99999999999994
 20
45.0
 10
188.99999999999994
 20
45.0
 10
188.99999999999994
 20
54.0
 10
176.99999999999994
 20
54.0
 10
176.99999999999994
 20
45.0
  0
HATCH
  5
D7
330
17
100
AcDbEntity
  8
column
 62
1
100
AcDbHatch
 10
0.0
 20
0.0
 30
0.0
210
0.0
220
0.0
230
1.0
  2
SOLID
 70
1
 71
0
 91
1
 92
3
 72
0
 73
1
 93
5
 10
176.99999999999994
 20
45.0
 10
188.99999999999994
 20
45.0
 10
188.99999999999994
 20
54.0
 10
176.99999999999994
 20
54.0
 10
176.99999999999994
 20
45.0
 97
0
 75
0
 76
1
 98
0
  0
LWPOLYLINE
  5
D8
330
17
100
AcDbEntity
  8
column
 62
1
100
AcDbPolyline
 90
5
 70
1
 10
308.9999999999997
 20
298.9999999999998
 10
320.9999999999997
 20
298.9999999999998
 10
320.9999999999997
 20
307.9999999999998
 10
308.9999999999997
 20
307.9999999999998
 10
308.9999999999997
 20
298.9999999999998
  0
HATCH
  5
D9
330
17
100
AcDbEntity
  8
column
 62
1
100
AcDbHatch
 10
0.0
 20
0.0
 30
0.0
210
0.0
220
0.0
230
1.0
  2
SOLID
 70
1
 71
0
 91
1
 92
3
 72
0
 73
1
 93
5
 10
308.9999999999997
 20
298.9999999999998
 10
320.9999999999997
 20
298.9999999999998
 10
320.9999999999997
 20
307.9999999999998
 10
308.9999999999997
 20
307.9999999999998
 10
308.9999999999997
 20
298.9999999999998
 97
0
 75
0
 76
1
 98
0
  0
LWPOLYLINE
  5
DA
330
17
100
AcDbEntity
  8
column
 62
1
100
AcDbPolyline
 90
5
 70
1
 10
308.9999999999997
 20
214.99999999999977
 10
320.9999999999997
 20
214.99999999999977
 10
320.9999999999997
 20
223.99999999999977
 10
308.9999999999997
 20
223.99999999999977
 10
308.9999999999997
 20
214.99999999999977
  0
HATCH
  5
DB
330
17
100
AcDbEntity
  8
column
 62
1
100
AcDbHatch
 10
0.0
 20
0.0
 30
0.0
210
0.0
220
0.0
230
1.0
  2
SOLID
 70
1
 71
0
 91
1
 92
3
 72
0
 73
1
 93
5
 10
308.9999999999997
 20
214.99999999999977
 10
320.9999999999997
 20
214.99999999999977
 10
320.9999999999997
 20
223.99999999999977
 10
308.9999999999997
 20
223.99999999999977
 10
308.9999999999997
 20
214.99999999999977
 97
0
 75
0
 76
1
 98
0
  0
LWPOLYLINE
  5
DC
330
17
100
AcDbEntity
  8
column
 62
1
100
AcDbPolyline
 90
5
 70
1
 10
309.00000000000006
 20
444.9999999999998
 10
321.00000000000006
 20
444.9999999999998
 10
321.00000000000006
 20
453.9999999999998
 10
309.00000000000006
 20
453.9999999999998
 10
309.00000000000006
 20
444.9999999999998
  0
HATCH
  5
DD
330
17
100
AcDbEntity
  8
column
 62
1
100
AcDbHatch
 10
0.0
 20
0.0
 30
0.0
210
0.0
220
0.0
230
1.0
  2
SOLID
 70
1
 71
0
 91
1
 92
3
 72
0
 73
1
 93
5
 10
309.00000000000006
 20
444.9999999999998
 10
321.00000000000006
 20
444.9999999999998
 10
321.00000000000006
 20
453.9999999999998
 10
309.00000000000006
 20
453.9999999999998
 10
309.00000000000006
 20
444.9999999999998
 97
0
 75
0
 76
1
 98
0
  0
LWPOLYLINE
  5
DE
330
17
100
AcDbEntity
  8
column
 62
1
100
AcDbPolyline
 90
5
 70
1
 10
80.99999999999994
 20
430.9999999999999
 10
92.99999999999994
 20
430.9999999999999
 10
92.99999999999994
 20
421.9999999999999
 10
80.99999999999994
 20
421.9999999999999
 10
80.99999999999994
 20
430.9999999999999
  0
HATCH
  5
DF
330
17
100
AcDbEntity
  8
column
 62
1
100
AcDbHatch
 10
0.0
 20
0.0
 30
0.0
210
0.0
220
0.0
230
1.0
  2
SOLID
 70
1
 71
0
 91
1
 92
3
 72
0
 73
1
 93
5
 10
80.99999999999994
 20
430.9999999999999
 10
92.99999999999994
 20
430.9999999999999
 10
92.99999999999994
 20
421.9999999999999
 10
80.99999999999994
 20
421.9999999999999
 10
80.99999999999994
 20
430.9999999999999
 97
0
 75
0
 76
1
 98
0
  0
MTEXT
  5
E1
330
17
100
AcDbEntity
  8
column
 62
0
100
AcDbMText
 10
10.5
 20
6.0
 30
0.0
 40
5.0
 71
1
  1
C1
  7
ArialStyle
  0
MTEXT
  5
E2
330
17
100
AcDbEntity
  8
column
 62
0
100
AcDbMText
 10
10.5
 20
505.9999999999999
 30
0.0
 40
5.0
 71
1
  1
C2
  7
ArialStyle
  0
MTEXT
  5
E3
330
17
100
AcDbEntity
  8
column
 62
0
100
AcDbMText
 10
364.49999999999983
 20
505.9999999999999
 30
0.0
 40
5.0
 71
1
  1
C3
  7
ArialStyle
  0
MTEXT
  5
E4
330
17
100
AcDbEntity
  8
column
 62
0
100
AcDbMText
 10
364.49999999999983
 20
6.0
 30
0.0
 40
5.0
 71
1
  1
C4
  7
ArialStyle
  0
MTEXT
  5
E5
330
17
100
AcDbEntity
  8
column
 62
0
100
AcDbMText
 10
10.5
 20
211.0
 30
0.0
 40
5.0
 71
1
  1
C5
  7
ArialStyle
  0
MTEXT
  5
E6
330
17
100
AcDbEntity
  8
column
 62
0
100
AcDbMText
 10
10.5
 20
431.0
 30
0.0
 40
5.0
 71
1
  1
C6
  7
ArialStyle
  0
MTEXT
  5
E7
330
17
100
AcDbEntity
  8
column
 62
0
100
AcDbMText
 10
93.5
 20
507.5
 30
0.0
 40
5.0
 71
1
  1
C7
  7
ArialStyle
  0
MTEXT
  5
E8
330
17
100
AcDbEntity
  8
column
 62
0
100
AcDbMText
 10
207.5
 20
507.5
 30
0.0
 40
5.0
 71
1
  1
C8
  7
ArialStyle
  0
MTEXT
  5
E9
330
17
100
AcDbEntity
  8
column
 62
0
100
AcDbMText
 10
364.5
 20
51.0
 30
0.0
 40
5.0
 71
1
  1
C9
  7
ArialStyle
  0
MTEXT
  5
EA
330
17
100
AcDbEntity
  8
column
 62
0
100
AcDbMText
 10
364.5
 20
215.0
 30
0.0
 40
5.0
 71
1
  1
C10
  7
ArialStyle
  0
MTEXT
  5
EB
330
17
100
AcDbEntity
  8
column
 62
0
100
AcDbMText
 10
228.26541684347723
 20
304.9999999999998
 30
0.0
 40
5.0
 71
1
  1
C11
  7
ArialStyle
  0
MTEXT
  5
EC
330
17
100
AcDbEntity
  8
column
 62
0
100
AcDbMText
 10
235.26541684347734
 20
214.49999999999977
 30
0.0
 40
5.0
 71
1
  1
C12
  7
ArialStyle
  0
MTEXT
  5
ED
330
17
100
AcDbEntity
  8
column
 62
0
100
AcDbMText
 10
190.49999999999994
 20
49.5
 30
0.0
 40
5.0
 71
1
  1
C13
  7
ArialStyle
  0
MTEXT
  5
EE
330
17
100
AcDbEntity
  8
column
 62
0
100
AcDbMText
 10
322.4999999999997
 20
303.4999999999998
 30
0.0
 40
5.0
 71
1
  1
C14
  7
ArialStyle
  0
MTEXT
  5
EF
330
17
100
AcDbEntity
  8
column
 62
0
100
AcDbMText
 10
322.4999999999997
 20
219.49999999999977
 30
0.0
 40
5.0
 71
1
  1
C15
  7
ArialStyle
  0
MTEXT
  5
F0
330
17
100
AcDbEntity
  8
column
 62
0
100
AcDbMText
 10
322.50000000000006
 20
449.4999999999998
 30
0.0
 40
5.0
 71
1
  1
C16
  7
ArialStyle
  0
MTEXT
  5
F1
330
17
100
AcDbEntity
  8
column
 62
0
100
AcDbMText
 10
94.49999999999994
 20
426.4999999999999
 30
0.0
 40
5.0
 71
1
  1
C17
  7
ArialStyle
  0
ENDSEC
  0
SECTION
  2
OBJECTS
  0
DICTIONARY
  5
A
330
0
100
AcDbDictionary
280
0
281
1
  3
ACAD_COLOR
350
B
  3
ACAD_GROUP
350
C
  3
ACAD_LAYOUT
350
D
  3
ACAD_MATERIAL
350
E
  3
ACAD_MLEADERSTYLE
350
F
  3
ACAD_MLINESTYLE
350
10
  3
ACAD_PLOTSETTINGS
350
11
  3
ACAD_PLOTSTYLENAME
350
12
  3
ACAD_SCALELIST
350
14
  3
ACAD_TABLESTYLE
350
15
  3
ACAD_VISUALSTYLE
350
16
  3
EZDXF_META
350
2D
  0
DICTIONARY
  5
B
330
A
100
AcDbDictionary
280
0
281
1
  0
DICTIONARY
  5
C
330
A
100
AcDbDictionary
280
0
281
1
  0
DICTIONARY
  5
D
330
A
100
AcDbDictionary
280
0
281
1
  3
Model
350
1A
  3
Layout1
350
1E
  0
DICTIONARY
  5
E
330
A
100
AcDbDictionary
280
0
281
1
  3
ByBlock
350
1F
  3
ByLayer
350
20
  3
Global
350
21
  0
DICTIONARY
  5
F
330
A
100
AcDbDictionary
280
0
281
1
  3
Standard
350
2C
  0
DICTIONARY
  5
10
330
A
100
AcDbDictionary
280
0
281
1
  3
Standard
350
22
  0
DICTIONARY
  5
11
330
A
100
AcDbDictionary
280
0
281
1
  0
ACDBDICTIONARYWDFLT
  5
12
330
A
100
AcDbDictionary
280
0
281
1
  3
Normal
350
13
100
AcDbDictionaryWithDefault
340
13
  0
ACDBPLACEHOLDER
  5
13
330
12
  0
DICTIONARY
  5
14
330
A
100
AcDbDictionary
280
0
281
1
  0
DICTIONARY
  5
15
330
A
100
AcDbDictionary
280
0
281
1
  0
DICTIONARY
  5
16
330
A
100
AcDbDictionary
280
0
281
1
  0
LAYOUT
  5
1A
330
D
100
AcDbPlotSettings
  1

  4
A3
  6

 40
7.5
 41
20.0
 42
7.5
 43
20.0
 44
420.0
 45
297.0
 46
0.0
 47
0.0
 48
0.0
 49
0.0
140
0.0
141
0.0
142
1.0
143
1.0
 70
1024
 72
1
 73
0
 74
5
  7

 75
16
 76
0
 77
2
 78
300
147
1.0
148
0.0
149
0.0
100
AcDbLayout
  1
Model
 70
1
 71
0
 10
0.0
 20
0.0
 11
420.0
 21
297.0
 12
0.0
 22
0.0
 32
0.0
 14
1e+20
 24
1e+20
 34
1e+20
 15
-1e+20
 25
-1e+20
 35
-1e+20
146
0.0
 13
0.0
 23
0.0
 33
0.0
 16
1.0
 26
0.0
 36
0.0
 17
0.0
 27
1.0
 37
0.0
 76
1
330
17
  0
LAYOUT
  5
1E
330
D
100
AcDbPlotSettings
  1

  4
A3
  6

 40
7.5
 41
20.0
 42
7.5
 43
20.0
 44
420.0
 45
297.0
 46
0.0
 47
0.0
 48
0.0
 49
0.0
140
0.0
141
0.0
142
1.0
143
1.0
 70
0
 72
1
 73
0
 74
5
  7

 75
16
 76
0
 77
2
 78
300
147
1.0
148
0.0
149
0.0
100
AcDbLayout
  1
Layout1
 70
1
 71
1
 10
0.0
 20
0.0
 11
420.0
 21
297.0
 12
0.0
 22
0.0
 32
0.0
 14
1e+20
 24
1e+20
 34
1e+20
 15
-1e+20
 25
-1e+20
 35
-1e+20
146
0.0
 13
0.0
 23
0.0
 33
0.0
 16
1.0
 26
0.0
 36
0.0
 17
0.0
 27
1.0
 37
0.0
 76
1
330
1B
  0
MATERIAL
  5
1F
102
{ACAD_REACTORS
330
E
102
}
330
E
100
AcDbMaterial
  1
ByBlock
  2

 70
0
 40
1.0
 71
1
 41
1.0
 91
-1023410177
 42
1.0
 72
1
  3

 73
1
 74
1
 75
1
 44
0.5
 73
0
 45
1.0
 46
1.0
 77
1
  4

 78
1
 79
1
170
1
 48
1.0
171
1
  6

172
1
173
1
174
1
140
1.0
141
1.0
175
1
  7

176
1
177
1
178
1
143
1.0
179
1
  8

270
1
271
1
272
1
145
1.0
146
1.0
273
1
  9

274
1
275
1
276
1
 42
1.0
 72
1
  3

 73
1
 74
1
 75
1
 94
63
  0
MATERIAL
  5
20
102
{ACAD_REACTORS
330
E
102
}
330
E
100
AcDbMaterial
  1
ByLayer
  2

 70
0
 40
1.0
 71
1
 41
1.0
 91
-1023410177
 42
1.0
 72
1
  3

 73
1
 74
1
 75
1
 44
0.5
 73
0
 45
1.0
 46
1.0
 77
1
  4

 78
1
 79
1
170
1
 48
1.0
171
1
  6

172
1
173
1
174
1
140
1.0
141
1.0
175
1
  7

176
1
177
1
178
1
143
1.0
179
1
  8

270
1
271
1
272
1
145
1.0
146
1.0
273
1
  9

274
1
275
1
276
1
 42
1.0
 72
1
  3

 73
1
 74
1
 75
1
 94
63
  0
MATERIAL
  5
21
102
{ACAD_REACTORS
330
E
102
}
330
E
100
AcDbMaterial
  1
Global
  2

 70
0
 40
1.0
 71
1
 41
1.0
 91
-1023410177
 42
1.0
 72
1
  3

 73
1
 74
1
 75
1
 44
0.5
 73
0
 45
1.0
 46
1.0
 77
1
  4

 78
1
 79
1
170
1
 48
1.0
171
1
  6

172
1
173
1
174
1
140
1.0
141
1.0
175
1
  7

176
1
177
1
178
1
143
1.0
179
1
  8

270
1
271
1
272
1
145
1.0
146
1.0
273
1
  9

274
1
275
1
276
1
 42
1.0
 72
1
  3

 73
1
 74
1
 75
1
 94
63
  0
MLINESTYLE
  5
22
102
{ACAD_REACTORS
330
10
102
}
330
10
100
AcDbMlineStyle
  2
Standard
 70
0
  3

 62
256
 51
90.0
 52
90.0
 71
2
 49
0.5
 62
256
  6
BYLAYER
 49
-0.5
 62
256
  6
BYLAYER
  0
MLEADERSTYLE
  5
2C
102
{ACAD_REACTORS
330
F
102
}
330
F
100
AcDbMLeaderStyle
179
2
170
2
171
1
172
0
 90
2
 40
0.0
 41
0.0
173
1
 91
-1056964608
 92
-2
290
1
 42
2.0
291
1
 43
8.0
  3
Standard
 44
4.0
300

342
29
174
1
175
1
176
0
178
1
 93
-1056964608
 45
4.0
292
0
297
0
 46
4.0
 94
-1056964608
 47
1.0
 49
1.0
140
1.0
294
1
141
0.0
177
0
142
1.0
295
0
296
0
143
3.75
271
0
272
9
273
9
  0
DICTIONARY
  5
2D
330
A
100
AcDbDictionary
281
1
  3
CREATED_BY_EZDXF
350
2E
  3
WRITTEN_BY_EZDXF
350
F4
  0
DICTIONARYVAR
  5
2E
330
2D
100
DictionaryVariables
280
0
  1
1.3.1 @ 2025-02-04T11:14:35.858651+00:00
  0
DICTIONARYVAR
  5
F4
330
2D
100
DictionaryVariables
280
0
  1
1.3.1 @ 2025-02-04T11:14:36.128781+00:00
  0
ENDSEC
  0
EOF
